<?xml version="1.0" standalone="no"?>
<!DOCTYPE svg PUBLIC "-//W3C//DTD SVG 20010904//EN"
 "http://www.w3.org/TR/2001/REC-SVG-20010904/DTD/svg10.dtd">
<svg version="1.0" xmlns="http://www.w3.org/2000/svg"
 width="70.000000pt" height="70.000000pt" viewBox="0 0 70.000000 70.000000"
 preserveAspectRatio="xMidYMid meet">
<metadata>
Created by potrace 1.11, written by Peter Selinger 2001-2013
</metadata>
<g transform="translate(0.000000,70.000000) scale(0.100000,-0.100000)"
fill="#000000" stroke="none">
<path d="M298 660 c-26 -16 -62 -38 -80 -47 -18 -10 -66 -38 -105 -62 l-73
-43 0 -245 0 -244 29 20 c16 12 31 21 34 21 14 0 115 68 109 74 -3 4 1 4 11 0
11 -4 35 5 65 25 57 37 67 37 107 10 17 -11 57 -33 90 -49 62 -30 104 -54 149
-83 l26 -17 0 243 0 244 -92 55 c-105 63 -218 128 -221 128 -1 0 -23 -14 -49
-30z m163 -132 l109 -63 0 -42 c0 -24 -2 -43 -5 -43 -5 0 -51 25 -148 82 l-68
40 -67 -40 c-89 -53 -142 -82 -147 -82 -3 0 -5 19 -5 43 l0 42 108 62 c59 34
109 63 111 63 2 0 52 -28 112 -62z m53 -219 c55 -27 58 -32 54 -87 l-3 -40
-100 59 c-55 32 -107 59 -116 59 -8 0 -35 -13 -60 -28 -24 -15 -70 -42 -101
-60 l-58 -32 0 49 0 49 112 60 111 59 56 -32 c31 -18 78 -43 105 -56z"/>
</g>
</svg>
